<svg xmlns="http://www.w3.org/2000/svg" xmlns:xlink="http://www.w3.org/1999/xlink" width="500" zoomAndPan="magnify" viewBox="0 0 375 374.999991" height="500" preserveAspectRatio="xMidYMid meet" version="1.0"><defs><g/><clipPath id="9b77aecc0c"><path d="M 284.847656 264.90625 L 287.285156 264.90625 L 287.285156 267.34375 L 284.847656 267.34375 Z M 284.847656 264.90625 " clip-rule="nonzero"/></clipPath><clipPath id="662b1ca428"><path d="M 286.066406 264.90625 C 285.394531 264.90625 284.847656 265.453125 284.847656 266.125 C 284.847656 266.796875 285.394531 267.34375 286.066406 267.34375 C 286.738281 267.34375 287.285156 266.796875 287.285156 266.125 C 287.285156 265.453125 286.738281 264.90625 286.066406 264.90625 Z M 286.066406 264.90625 " clip-rule="nonzero"/></clipPath><clipPath id="9bdbd94599"><path d="M 87.144531 264.90625 L 89.578125 264.90625 L 89.578125 267.34375 L 87.144531 267.34375 Z M 87.144531 264.90625 " clip-rule="nonzero"/></clipPath><clipPath id="2c51a36861"><path d="M 88.363281 264.90625 C 87.691406 264.90625 87.144531 265.453125 87.144531 266.125 C 87.144531 266.796875 87.691406 267.34375 88.363281 267.34375 C 89.035156 267.34375 89.578125 266.796875 89.578125 266.125 C 89.578125 265.453125 89.035156 264.90625 88.363281 264.90625 Z M 88.363281 264.90625 " clip-rule="nonzero"/></clipPath></defs><path stroke-linecap="butt" transform="matrix(0, -0.875962, 0.875962, 0, 171.512292, 210.284341)" fill="none" stroke-linejoin="miter" d="M -0.000931158 0.498796 L 62.278845 0.498796 " stroke="#ffffff" stroke-width="1" stroke-opacity="1" stroke-miterlimit="4"/><path stroke-linecap="butt" transform="matrix(0.649355, -0.587917, 0.587917, 0.649355, 171.357869, 209.721269)" fill="none" stroke-linejoin="miter" d="M -0.000274533 0.501181 L 92.383997 0.497945 " stroke="#ffffff" stroke-width="1" stroke-opacity="1" stroke-miterlimit="4"/><path stroke-linecap="butt" transform="matrix(-0.669508, -0.564861, 0.564861, -0.669508, 232.878534, 210.381447)" fill="none" stroke-linejoin="miter" d="M 0.000571137 0.499246 L 47.431022 0.501295 " stroke="#ffffff" stroke-width="1" stroke-opacity="1" stroke-miterlimit="4"/><path stroke-linecap="butt" transform="matrix(0.00000000152884, -0.875962, 0.875962, 0.00000000152884, 230.760825, 146.347416)" fill="none" stroke-linejoin="miter" d="M -0.000274281 0.500472 L 49.766467 0.500472 " stroke="#ffffff" stroke-width="1" stroke-opacity="1" stroke-miterlimit="4"/><path stroke-linecap="butt" transform="matrix(0.875962, 0, 0, 0.875962, 141.550658, 102.761595)" fill="none" stroke-linejoin="miter" d="M 0.00014024 0.499593 L 102.057634 0.499593 " stroke="#ffffff" stroke-width="1" stroke-opacity="1" stroke-miterlimit="4"/><path stroke-linecap="butt" transform="matrix(0, -0.875962, 0.875962, 0, 141.547056, 210.371602)" fill="none" stroke-linejoin="miter" d="M 0.000580431 0.499245 L 122.852189 0.499245 " stroke="#ffffff" stroke-width="1" stroke-opacity="1" stroke-miterlimit="4"/><path stroke-linecap="butt" transform="matrix(0.875962, -0.000000000000000978, 0.000000000000000978, 0.875962, 141.550658, 209.895807)" fill="none" stroke-linejoin="miter" d="M 0.00014024 0.497995 L 104.831372 0.497995 " stroke="#ffffff" stroke-width="1" stroke-opacity="1" stroke-miterlimit="4"/><g fill="#ffffff" fill-opacity="1"><g transform="translate(89.01629, 256.739785)"><g><path d="M 1.53125 -2.71875 C 2 -2.332031 2.523438 -2.015625 3.109375 -1.765625 C 3.703125 -1.515625 4.390625 -1.390625 5.171875 -1.390625 C 6.109375 -1.390625 6.847656 -1.582031 7.390625 -1.96875 C 7.941406 -2.363281 8.21875 -2.894531 8.21875 -3.5625 C 8.21875 -3.832031 8.175781 -4.082031 8.09375 -4.3125 C 8.019531 -4.550781 7.867188 -4.78125 7.640625 -5 C 7.410156 -5.21875 7.085938 -5.429688 6.671875 -5.640625 C 6.265625 -5.859375 5.738281 -6.09375 5.09375 -6.34375 C 4.382812 -6.613281 3.785156 -6.882812 3.296875 -7.15625 C 2.804688 -7.425781 2.410156 -7.71875 2.109375 -8.03125 C 1.816406 -8.351562 1.601562 -8.707031 1.46875 -9.09375 C 1.332031 -9.476562 1.265625 -9.921875 1.265625 -10.421875 C 1.265625 -10.898438 1.363281 -11.351562 1.5625 -11.78125 C 1.769531 -12.21875 2.070312 -12.59375 2.46875 -12.90625 C 2.875 -13.226562 3.363281 -13.476562 3.9375 -13.65625 C 4.519531 -13.84375 5.1875 -13.9375 5.9375 -13.9375 C 6.738281 -13.9375 7.457031 -13.851562 8.09375 -13.6875 C 8.738281 -13.53125 9.375 -13.300781 10 -13 L 9.3125 -11.421875 C 8.875 -11.679688 8.359375 -11.894531 7.765625 -12.0625 C 7.171875 -12.238281 6.546875 -12.328125 5.890625 -12.328125 C 5.023438 -12.328125 4.34375 -12.160156 3.84375 -11.828125 C 3.351562 -11.492188 3.109375 -11.054688 3.109375 -10.515625 C 3.109375 -10.253906 3.144531 -10.019531 3.21875 -9.8125 C 3.289062 -9.613281 3.429688 -9.421875 3.640625 -9.234375 C 3.859375 -9.046875 4.160156 -8.851562 4.546875 -8.65625 C 4.929688 -8.457031 5.445312 -8.238281 6.09375 -8 C 6.84375 -7.71875 7.476562 -7.425781 8 -7.125 C 8.53125 -6.820312 8.953125 -6.5 9.265625 -6.15625 C 9.578125 -5.820312 9.800781 -5.457031 9.9375 -5.0625 C 10.070312 -4.675781 10.140625 -4.25 10.140625 -3.78125 C 10.140625 -3.132812 10.015625 -2.5625 9.765625 -2.0625 C 9.515625 -1.570312 9.171875 -1.15625 8.734375 -0.8125 C 8.296875 -0.46875 7.769531 -0.207031 7.15625 -0.03125 C 6.550781 0.144531 5.890625 0.234375 5.171875 0.234375 C 4.210938 0.234375 3.34375 0.109375 2.5625 -0.140625 C 1.78125 -0.398438 1.125 -0.738281 0.59375 -1.15625 Z M 1.53125 -2.71875 "/></g></g></g><g fill="#ffffff" fill-opacity="1"><g transform="translate(112.417952, 256.739785)"><g><path d="M 0.203125 -13.703125 L 10.46875 -13.703125 L 10.46875 -12.0625 L 6.265625 -12.0625 L 6.265625 0 L 4.40625 0 L 4.40625 -12.0625 L 0.203125 -12.0625 Z M 0.203125 -13.703125 "/></g></g></g><g fill="#ffffff" fill-opacity="1"><g transform="translate(135.369287, 256.739785)"><g><path d="M 9.84375 -13.703125 L 11.65625 -13.703125 L 11.65625 -5.28125 C 11.65625 -4.425781 11.53125 -3.65625 11.28125 -2.96875 C 11.039062 -2.28125 10.695312 -1.695312 10.25 -1.21875 C 9.800781 -0.75 9.257812 -0.390625 8.625 -0.140625 C 8 0.109375 7.304688 0.234375 6.546875 0.234375 C 4.953125 0.234375 3.707031 -0.226562 2.8125 -1.15625 C 1.914062 -2.09375 1.46875 -3.441406 1.46875 -5.203125 L 1.46875 -13.703125 L 3.328125 -13.703125 L 3.328125 -5.5 C 3.328125 -4.1875 3.59375 -3.171875 4.125 -2.453125 C 4.65625 -1.742188 5.460938 -1.390625 6.546875 -1.390625 C 7.648438 -1.390625 8.472656 -1.738281 9.015625 -2.4375 C 9.566406 -3.132812 9.84375 -4.15625 9.84375 -5.5 Z M 9.84375 -13.703125 "/></g></g></g><g fill="#ffffff" fill-opacity="1"><g transform="translate(160.768065, 256.739785)"><g><path d="M 1.765625 -13.671875 C 2.378906 -13.734375 2.976562 -13.78125 3.5625 -13.8125 C 4.144531 -13.84375 4.816406 -13.859375 5.578125 -13.859375 C 6.753906 -13.859375 7.765625 -13.675781 8.609375 -13.3125 C 9.460938 -12.945312 10.171875 -12.441406 10.734375 -11.796875 C 11.296875 -11.160156 11.707031 -10.414062 11.96875 -9.5625 C 12.238281 -8.71875 12.375 -7.820312 12.375 -6.875 C 12.375 -5.914062 12.234375 -5.007812 11.953125 -4.15625 C 11.679688 -3.300781 11.257812 -2.550781 10.6875 -1.90625 C 10.125 -1.269531 9.398438 -0.765625 8.515625 -0.390625 C 7.640625 -0.0234375 6.585938 0.15625 5.359375 0.15625 C 4.617188 0.15625 3.96875 0.140625 3.40625 0.109375 C 2.851562 0.078125 2.304688 0.0234375 1.765625 -0.046875 Z M 5.515625 -12.25 C 5.140625 -12.25 4.796875 -12.238281 4.484375 -12.21875 C 4.171875 -12.207031 3.882812 -12.1875 3.625 -12.15625 L 3.625 -1.5625 C 3.894531 -1.519531 4.179688 -1.492188 4.484375 -1.484375 C 4.785156 -1.472656 5.097656 -1.46875 5.421875 -1.46875 C 6.296875 -1.46875 7.050781 -1.597656 7.6875 -1.859375 C 8.332031 -2.128906 8.859375 -2.503906 9.265625 -2.984375 C 9.679688 -3.460938 9.984375 -4.03125 10.171875 -4.6875 C 10.367188 -5.34375 10.46875 -6.070312 10.46875 -6.875 C 10.46875 -7.570312 10.367188 -8.242188 10.171875 -8.890625 C 9.984375 -9.546875 9.6875 -10.125 9.28125 -10.625 C 8.875 -11.125 8.359375 -11.519531 7.734375 -11.8125 C 7.109375 -12.101562 6.367188 -12.25 5.515625 -12.25 Z M 5.515625 -12.25 "/></g></g></g><g fill="#ffffff" fill-opacity="1"><g transform="translate(186.401795, 256.739785)"><g><path d="M 1.765625 0 L 1.765625 -13.703125 L 3.625 -13.703125 L 3.625 0 Z M 1.765625 0 "/></g></g></g><g fill="#ffffff" fill-opacity="1"><g transform="translate(204.06667, 256.739785)"><g><path d="M 0.984375 -6.875 C 0.984375 -7.875 1.128906 -8.804688 1.421875 -9.671875 C 1.710938 -10.535156 2.132812 -11.28125 2.6875 -11.90625 C 3.25 -12.539062 3.925781 -13.035156 4.71875 -13.390625 C 5.507812 -13.753906 6.414062 -13.9375 7.4375 -13.9375 C 8.445312 -13.9375 9.351562 -13.75 10.15625 -13.375 C 10.957031 -13.007812 11.632812 -12.503906 12.1875 -11.859375 C 12.738281 -11.222656 13.164062 -10.476562 13.46875 -9.625 C 13.769531 -8.769531 13.921875 -7.851562 13.921875 -6.875 C 13.921875 -5.894531 13.773438 -4.972656 13.484375 -4.109375 C 13.191406 -3.242188 12.765625 -2.488281 12.203125 -1.84375 C 11.640625 -1.195312 10.957031 -0.6875 10.15625 -0.3125 C 9.363281 0.0507812 8.457031 0.234375 7.4375 0.234375 C 6.414062 0.234375 5.507812 0.0507812 4.71875 -0.3125 C 3.925781 -0.6875 3.25 -1.195312 2.6875 -1.84375 C 2.132812 -2.488281 1.710938 -3.242188 1.421875 -4.109375 C 1.128906 -4.972656 0.984375 -5.894531 0.984375 -6.875 Z M 2.875 -6.875 C 2.875 -6.164062 2.972656 -5.476562 3.171875 -4.8125 C 3.378906 -4.144531 3.675781 -3.554688 4.0625 -3.046875 C 4.457031 -2.546875 4.9375 -2.140625 5.5 -1.828125 C 6.070312 -1.523438 6.71875 -1.375 7.4375 -1.375 C 8.195312 -1.375 8.859375 -1.515625 9.421875 -1.796875 C 9.992188 -2.078125 10.472656 -2.460938 10.859375 -2.953125 C 11.242188 -3.441406 11.53125 -4.019531 11.71875 -4.6875 C 11.914062 -5.363281 12.015625 -6.09375 12.015625 -6.875 C 12.015625 -7.570312 11.910156 -8.25 11.703125 -8.90625 C 11.492188 -9.5625 11.191406 -10.144531 10.796875 -10.65625 C 10.410156 -11.164062 9.929688 -11.570312 9.359375 -11.875 C 8.796875 -12.175781 8.15625 -12.328125 7.4375 -12.328125 C 6.71875 -12.328125 6.070312 -12.1875 5.5 -11.90625 C 4.9375 -11.632812 4.457031 -11.253906 4.0625 -10.765625 C 3.675781 -10.273438 3.378906 -9.695312 3.171875 -9.03125 C 2.972656 -8.363281 2.875 -7.644531 2.875 -6.875 Z M 2.875 -6.875 "/></g></g></g><g fill="#ffffff" fill-opacity="1"><g transform="translate(231.247173, 256.739785)"><g/></g></g><g fill="#ffffff" fill-opacity="1"><g transform="translate(249.401532, 256.739785)"><g><path d="M 0.203125 -13.21875 L 2.015625 -13.921875 L 6.328125 -2.03125 L 10.65625 -13.859375 L 12.328125 -13.21875 L 7.328125 0 L 5.234375 0 Z M 0.203125 -13.21875 "/></g></g></g><g fill="#ffffff" fill-opacity="1"><g transform="translate(274.212927, 256.739785)"><g><path d="M 11.578125 -1.09375 L 10.28125 0.234375 L 3.625 -6.296875 L 3.625 0 L 1.765625 0 L 1.765625 -13.703125 L 3.625 -13.703125 L 3.625 -7.453125 L 9.453125 -13.765625 L 10.703125 -12.609375 L 5.359375 -7.046875 Z M 11.578125 -1.09375 "/></g></g></g><g fill="#ffffff" fill-opacity="1"><g transform="translate(92.847918, 269.257843)"><g><path d="M 0.078125 -0.21875 L 2.421875 -5.953125 L 3.296875 -5.953125 L 5.609375 -0.21875 L 4.859375 0.078125 L 4.203125 -1.625 L 1.4375 -1.625 L 0.78125 0.0625 Z M 1.6875 -2.296875 L 3.9375 -2.296875 L 2.8125 -5.15625 Z M 1.6875 -2.296875 "/></g></g></g><g fill="#ffffff" fill-opacity="1"><g transform="translate(101.872306, 269.257843)"><g><path d="M 4.234375 0.109375 L 3.5 -1.515625 C 3.3125 -1.921875 3.078125 -2.207031 2.796875 -2.375 C 2.515625 -2.539062 2.148438 -2.625 1.703125 -2.625 L 1.578125 -2.625 L 1.578125 0 L 0.765625 0 L 0.765625 -5.9375 C 1.066406 -5.96875 1.351562 -5.988281 1.625 -6 C 1.894531 -6.019531 2.191406 -6.03125 2.515625 -6.03125 C 2.878906 -6.03125 3.195312 -5.988281 3.46875 -5.90625 C 3.738281 -5.832031 3.960938 -5.722656 4.140625 -5.578125 C 4.328125 -5.441406 4.46875 -5.273438 4.5625 -5.078125 C 4.65625 -4.890625 4.703125 -4.675781 4.703125 -4.4375 C 4.703125 -4.03125 4.578125 -3.695312 4.328125 -3.4375 C 4.078125 -3.1875 3.722656 -3 3.265625 -2.875 C 3.378906 -2.820312 3.484375 -2.765625 3.578125 -2.703125 C 3.671875 -2.640625 3.757812 -2.5625 3.84375 -2.46875 C 3.9375 -2.375 4.019531 -2.257812 4.09375 -2.125 C 4.175781 -2 4.257812 -1.84375 4.34375 -1.65625 L 5 -0.25 Z M 2.515625 -5.34375 C 2.316406 -5.34375 2.140625 -5.335938 1.984375 -5.328125 C 1.835938 -5.328125 1.703125 -5.320312 1.578125 -5.3125 L 1.578125 -3.3125 L 2.515625 -3.3125 C 2.921875 -3.3125 3.25 -3.398438 3.5 -3.578125 C 3.757812 -3.765625 3.890625 -4.03125 3.890625 -4.375 C 3.890625 -4.65625 3.769531 -4.882812 3.53125 -5.0625 C 3.289062 -5.25 2.953125 -5.34375 2.515625 -5.34375 Z M 2.515625 -5.34375 "/></g></g></g><g fill="#ffffff" fill-opacity="1"><g transform="translate(110.462565, 269.257843)"><g><path d="M 0.421875 -2.984375 C 0.421875 -3.421875 0.484375 -3.828125 0.609375 -4.203125 C 0.734375 -4.578125 0.914062 -4.898438 1.15625 -5.171875 C 1.394531 -5.453125 1.679688 -5.671875 2.015625 -5.828125 C 2.359375 -5.984375 2.75 -6.0625 3.1875 -6.0625 C 3.625 -6.0625 4.015625 -5.976562 4.359375 -5.8125 C 4.703125 -5.65625 4.992188 -5.4375 5.234375 -5.15625 C 5.472656 -4.882812 5.65625 -4.5625 5.78125 -4.1875 C 5.90625 -3.8125 5.96875 -3.410156 5.96875 -2.984375 C 5.96875 -2.546875 5.90625 -2.160156 5.78125 -1.828125 C 5.65625 -1.503906 5.507812 -1.222656 5.34375 -0.984375 L 6.09375 -0.578125 L 5.734375 0.109375 L 4.90625 -0.515625 C 4.6875 -0.335938 4.4375 -0.1875 4.15625 -0.0625 C 3.875 0.0507812 3.550781 0.109375 3.1875 0.109375 C 2.75 0.109375 2.359375 0.0234375 2.015625 -0.140625 C 1.679688 -0.304688 1.394531 -0.523438 1.15625 -0.796875 C 0.914062 -1.078125 0.734375 -1.40625 0.609375 -1.78125 C 0.484375 -2.15625 0.421875 -2.554688 0.421875 -2.984375 Z M 3.65625 -1.296875 L 4 -1.921875 L 4.765625 -1.375 C 4.898438 -1.59375 4.992188 -1.832031 5.046875 -2.09375 C 5.109375 -2.351562 5.140625 -2.648438 5.140625 -2.984375 C 5.140625 -3.296875 5.09375 -3.59375 5 -3.875 C 4.914062 -4.15625 4.789062 -4.40625 4.625 -4.625 C 4.457031 -4.851562 4.253906 -5.03125 4.015625 -5.15625 C 3.773438 -5.289062 3.5 -5.359375 3.1875 -5.359375 C 2.882812 -5.359375 2.613281 -5.296875 2.375 -5.171875 C 2.132812 -5.054688 1.929688 -4.894531 1.765625 -4.6875 C 1.597656 -4.476562 1.46875 -4.226562 1.375 -3.9375 C 1.289062 -3.644531 1.25 -3.328125 1.25 -2.984375 C 1.25 -2.679688 1.289062 -2.382812 1.375 -2.09375 C 1.457031 -1.800781 1.582031 -1.546875 1.75 -1.328125 C 1.914062 -1.109375 2.117188 -0.929688 2.359375 -0.796875 C 2.597656 -0.660156 2.867188 -0.59375 3.171875 -0.59375 C 3.410156 -0.59375 3.625 -0.617188 3.8125 -0.671875 C 4 -0.734375 4.160156 -0.804688 4.296875 -0.890625 Z M 3.65625 -1.296875 "/></g></g></g><g fill="#ffffff" fill-opacity="1"><g transform="translate(120.278605, 269.257843)"><g><path d="M 4.28125 -5.953125 L 5.0625 -5.953125 L 5.0625 -2.296875 C 5.0625 -1.921875 5.007812 -1.582031 4.90625 -1.28125 C 4.800781 -0.988281 4.648438 -0.738281 4.453125 -0.53125 C 4.265625 -0.320312 4.03125 -0.160156 3.75 -0.046875 C 3.476562 0.0546875 3.175781 0.109375 2.84375 0.109375 C 2.15625 0.109375 1.613281 -0.09375 1.21875 -0.5 C 0.832031 -0.90625 0.640625 -1.492188 0.640625 -2.265625 L 0.640625 -5.953125 L 1.453125 -5.953125 L 1.453125 -2.390625 C 1.453125 -1.816406 1.566406 -1.375 1.796875 -1.0625 C 2.023438 -0.757812 2.375 -0.609375 2.84375 -0.609375 C 3.320312 -0.609375 3.679688 -0.757812 3.921875 -1.0625 C 4.160156 -1.363281 4.28125 -1.804688 4.28125 -2.390625 Z M 4.28125 -5.953125 "/></g></g></g><g fill="#ffffff" fill-opacity="1"><g transform="translate(129.320019, 269.257843)"><g><path d="M 0.765625 0 L 0.765625 -5.953125 L 1.578125 -5.953125 L 1.578125 0 Z M 0.765625 0 "/></g></g></g><g fill="#ffffff" fill-opacity="1"><g transform="translate(134.99906, 269.257843)"><g><path d="M 0.078125 -5.953125 L 4.5625 -5.953125 L 4.5625 -5.25 L 2.71875 -5.25 L 2.71875 0 L 1.921875 0 L 1.921875 -5.25 L 0.078125 -5.25 Z M 0.078125 -5.953125 "/></g></g></g><g fill="#ffffff" fill-opacity="1"><g transform="translate(142.976427, 269.257843)"><g><path d="M 0.765625 -5.953125 L 4.34375 -5.953125 L 4.34375 -5.265625 L 1.578125 -5.265625 L 1.578125 -3.453125 L 3.953125 -3.453125 L 3.953125 -2.765625 L 1.578125 -2.765625 L 1.578125 -0.703125 L 4.34375 -0.703125 L 4.34375 0 L 0.765625 0 Z M 0.765625 -5.953125 "/></g></g></g><g fill="#ffffff" fill-opacity="1"><g transform="translate(151.038921, 269.257843)"><g><path d="M 0.078125 -5.953125 L 4.5625 -5.953125 L 4.5625 -5.25 L 2.71875 -5.25 L 2.71875 0 L 1.921875 0 L 1.921875 -5.25 L 0.078125 -5.25 Z M 0.078125 -5.953125 "/></g></g></g><g fill="#ffffff" fill-opacity="1"><g transform="translate(159.016289, 269.257843)"><g><path d="M 4.28125 -5.953125 L 5.0625 -5.953125 L 5.0625 -2.296875 C 5.0625 -1.921875 5.007812 -1.582031 4.90625 -1.28125 C 4.800781 -0.988281 4.648438 -0.738281 4.453125 -0.53125 C 4.265625 -0.320312 4.03125 -0.160156 3.75 -0.046875 C 3.476562 0.0546875 3.175781 0.109375 2.84375 0.109375 C 2.15625 0.109375 1.613281 -0.09375 1.21875 -0.5 C 0.832031 -0.90625 0.640625 -1.492188 0.640625 -2.265625 L 0.640625 -5.953125 L 1.453125 -5.953125 L 1.453125 -2.390625 C 1.453125 -1.816406 1.566406 -1.375 1.796875 -1.0625 C 2.023438 -0.757812 2.375 -0.609375 2.84375 -0.609375 C 3.320312 -0.609375 3.679688 -0.757812 3.921875 -1.0625 C 4.160156 -1.363281 4.28125 -1.804688 4.28125 -2.390625 Z M 4.28125 -5.953125 "/></g></g></g><g fill="#ffffff" fill-opacity="1"><g transform="translate(168.057703, 269.257843)"><g><path d="M 4.234375 0.109375 L 3.5 -1.515625 C 3.3125 -1.921875 3.078125 -2.207031 2.796875 -2.375 C 2.515625 -2.539062 2.148438 -2.625 1.703125 -2.625 L 1.578125 -2.625 L 1.578125 0 L 0.765625 0 L 0.765625 -5.9375 C 1.066406 -5.96875 1.351562 -5.988281 1.625 -6 C 1.894531 -6.019531 2.191406 -6.03125 2.515625 -6.03125 C 2.878906 -6.03125 3.195312 -5.988281 3.46875 -5.90625 C 3.738281 -5.832031 3.960938 -5.722656 4.140625 -5.578125 C 4.328125 -5.441406 4.46875 -5.273438 4.5625 -5.078125 C 4.65625 -4.890625 4.703125 -4.675781 4.703125 -4.4375 C 4.703125 -4.03125 4.578125 -3.695312 4.328125 -3.4375 C 4.078125 -3.1875 3.722656 -3 3.265625 -2.875 C 3.378906 -2.820312 3.484375 -2.765625 3.578125 -2.703125 C 3.671875 -2.640625 3.757812 -2.5625 3.84375 -2.46875 C 3.9375 -2.375 4.019531 -2.257812 4.09375 -2.125 C 4.175781 -2 4.257812 -1.84375 4.34375 -1.65625 L 5 -0.25 Z M 2.515625 -5.34375 C 2.316406 -5.34375 2.140625 -5.335938 1.984375 -5.328125 C 1.835938 -5.328125 1.703125 -5.320312 1.578125 -5.3125 L 1.578125 -3.3125 L 2.515625 -3.3125 C 2.921875 -3.3125 3.25 -3.398438 3.5 -3.578125 C 3.757812 -3.765625 3.890625 -4.03125 3.890625 -4.375 C 3.890625 -4.65625 3.769531 -4.882812 3.53125 -5.0625 C 3.289062 -5.25 2.953125 -5.34375 2.515625 -5.34375 Z M 2.515625 -5.34375 "/></g></g></g><g fill="#ffffff" fill-opacity="1"><g transform="translate(176.647961, 269.257843)"><g><path d="M 0.078125 -0.21875 L 2.421875 -5.953125 L 3.296875 -5.953125 L 5.609375 -0.21875 L 4.859375 0.078125 L 4.203125 -1.625 L 1.4375 -1.625 L 0.78125 0.0625 Z M 1.6875 -2.296875 L 3.9375 -2.296875 L 2.8125 -5.15625 Z M 1.6875 -2.296875 "/></g></g></g><g fill="#ffffff" fill-opacity="1"><g transform="translate(185.67235, 269.257843)"><g/></g></g><g fill="#ffffff" fill-opacity="1"><g transform="translate(191.564202, 269.257843)"><g><path d="M 0.765625 -5.953125 L 4.34375 -5.953125 L 4.34375 -5.265625 L 1.578125 -5.265625 L 1.578125 -3.453125 L 3.953125 -3.453125 L 3.953125 -2.765625 L 1.578125 -2.765625 L 1.578125 -0.703125 L 4.34375 -0.703125 L 4.34375 0 L 0.765625 0 Z M 0.765625 -5.953125 "/></g></g></g><g fill="#ffffff" fill-opacity="1"><g transform="translate(199.626696, 269.257843)"><g/></g></g><g fill="#ffffff" fill-opacity="1"><g transform="translate(205.518548, 269.257843)"><g><path d="M 0.765625 0 L 0.765625 -5.953125 L 1.578125 -5.953125 L 1.578125 0 Z M 0.765625 0 "/></g></g></g><g fill="#ffffff" fill-opacity="1"><g transform="translate(211.197589, 269.257843)"><g><path d="M 1.53125 -4.921875 L 1.53125 0 L 0.765625 0 L 0.765625 -5.953125 L 1.84375 -5.953125 L 4.46875 -1 L 4.46875 -5.953125 L 5.234375 -5.953125 L 5.234375 0 L 4.1875 0 Z M 1.53125 -4.921875 "/></g></g></g><g fill="#ffffff" fill-opacity="1"><g transform="translate(220.536931, 269.257843)"><g><path d="M 0.078125 -5.953125 L 4.5625 -5.953125 L 4.5625 -5.25 L 2.71875 -5.25 L 2.71875 0 L 1.921875 0 L 1.921875 -5.25 L 0.078125 -5.25 Z M 0.078125 -5.953125 "/></g></g></g><g fill="#ffffff" fill-opacity="1"><g transform="translate(228.514298, 269.257843)"><g><path d="M 0.765625 -5.953125 L 4.34375 -5.953125 L 4.34375 -5.265625 L 1.578125 -5.265625 L 1.578125 -3.453125 L 3.953125 -3.453125 L 3.953125 -2.765625 L 1.578125 -2.765625 L 1.578125 -0.703125 L 4.34375 -0.703125 L 4.34375 0 L 0.765625 0 Z M 0.765625 -5.953125 "/></g></g></g><g fill="#ffffff" fill-opacity="1"><g transform="translate(236.576792, 269.257843)"><g><path d="M 4.234375 0.109375 L 3.5 -1.515625 C 3.3125 -1.921875 3.078125 -2.207031 2.796875 -2.375 C 2.515625 -2.539062 2.148438 -2.625 1.703125 -2.625 L 1.578125 -2.625 L 1.578125 0 L 0.765625 0 L 0.765625 -5.9375 C 1.066406 -5.96875 1.351562 -5.988281 1.625 -6 C 1.894531 -6.019531 2.191406 -6.03125 2.515625 -6.03125 C 2.878906 -6.03125 3.195312 -5.988281 3.46875 -5.90625 C 3.738281 -5.832031 3.960938 -5.722656 4.140625 -5.578125 C 4.328125 -5.441406 4.46875 -5.273438 4.5625 -5.078125 C 4.65625 -4.890625 4.703125 -4.675781 4.703125 -4.4375 C 4.703125 -4.03125 4.578125 -3.695312 4.328125 -3.4375 C 4.078125 -3.1875 3.722656 -3 3.265625 -2.875 C 3.378906 -2.820312 3.484375 -2.765625 3.578125 -2.703125 C 3.671875 -2.640625 3.757812 -2.5625 3.84375 -2.46875 C 3.9375 -2.375 4.019531 -2.257812 4.09375 -2.125 C 4.175781 -2 4.257812 -1.84375 4.34375 -1.65625 L 5 -0.25 Z M 2.515625 -5.34375 C 2.316406 -5.34375 2.140625 -5.335938 1.984375 -5.328125 C 1.835938 -5.328125 1.703125 -5.320312 1.578125 -5.3125 L 1.578125 -3.3125 L 2.515625 -3.3125 C 2.921875 -3.3125 3.25 -3.398438 3.5 -3.578125 C 3.757812 -3.765625 3.890625 -4.03125 3.890625 -4.375 C 3.890625 -4.65625 3.769531 -4.882812 3.53125 -5.0625 C 3.289062 -5.25 2.953125 -5.34375 2.515625 -5.34375 Z M 2.515625 -5.34375 "/></g></g></g><g fill="#ffffff" fill-opacity="1"><g transform="translate(245.16705, 269.257843)"><g><path d="M 0.765625 0 L 0.765625 -5.953125 L 1.578125 -5.953125 L 1.578125 0 Z M 0.765625 0 "/></g></g></g><g fill="#ffffff" fill-opacity="1"><g transform="translate(250.846091, 269.257843)"><g><path d="M 0.421875 -2.984375 C 0.421875 -3.421875 0.484375 -3.828125 0.609375 -4.203125 C 0.742188 -4.578125 0.929688 -4.898438 1.171875 -5.171875 C 1.410156 -5.453125 1.703125 -5.671875 2.046875 -5.828125 C 2.398438 -5.984375 2.796875 -6.0625 3.234375 -6.0625 C 3.671875 -6.0625 4.0625 -5.976562 4.40625 -5.8125 C 4.757812 -5.65625 5.054688 -5.4375 5.296875 -5.15625 C 5.535156 -4.882812 5.71875 -4.5625 5.84375 -4.1875 C 5.976562 -3.8125 6.046875 -3.410156 6.046875 -2.984375 C 6.046875 -2.554688 5.984375 -2.15625 5.859375 -1.78125 C 5.734375 -1.40625 5.546875 -1.078125 5.296875 -0.796875 C 5.054688 -0.523438 4.765625 -0.304688 4.421875 -0.140625 C 4.078125 0.0234375 3.679688 0.109375 3.234375 0.109375 C 2.796875 0.109375 2.398438 0.0234375 2.046875 -0.140625 C 1.703125 -0.304688 1.410156 -0.523438 1.171875 -0.796875 C 0.929688 -1.078125 0.742188 -1.40625 0.609375 -1.78125 C 0.484375 -2.15625 0.421875 -2.554688 0.421875 -2.984375 Z M 1.25 -2.984375 C 1.25 -2.679688 1.289062 -2.382812 1.375 -2.09375 C 1.46875 -1.800781 1.597656 -1.546875 1.765625 -1.328125 C 1.941406 -1.109375 2.148438 -0.929688 2.390625 -0.796875 C 2.640625 -0.660156 2.921875 -0.59375 3.234375 -0.59375 C 3.566406 -0.59375 3.851562 -0.65625 4.09375 -0.78125 C 4.34375 -0.90625 4.550781 -1.070312 4.71875 -1.28125 C 4.882812 -1.488281 5.007812 -1.738281 5.09375 -2.03125 C 5.1875 -2.332031 5.234375 -2.648438 5.234375 -2.984375 C 5.234375 -3.296875 5.1875 -3.59375 5.09375 -3.875 C 5 -4.15625 4.863281 -4.40625 4.6875 -4.625 C 4.519531 -4.851562 4.3125 -5.03125 4.0625 -5.15625 C 3.820312 -5.289062 3.546875 -5.359375 3.234375 -5.359375 C 2.921875 -5.359375 2.640625 -5.296875 2.390625 -5.171875 C 2.148438 -5.054688 1.941406 -4.890625 1.765625 -4.671875 C 1.597656 -4.460938 1.46875 -4.210938 1.375 -3.921875 C 1.289062 -3.628906 1.25 -3.316406 1.25 -2.984375 Z M 1.25 -2.984375 "/></g></g></g><g fill="#ffffff" fill-opacity="1"><g transform="translate(260.662132, 269.257843)"><g><path d="M 4.234375 0.109375 L 3.5 -1.515625 C 3.3125 -1.921875 3.078125 -2.207031 2.796875 -2.375 C 2.515625 -2.539062 2.148438 -2.625 1.703125 -2.625 L 1.578125 -2.625 L 1.578125 0 L 0.765625 0 L 0.765625 -5.9375 C 1.066406 -5.96875 1.351562 -5.988281 1.625 -6 C 1.894531 -6.019531 2.191406 -6.03125 2.515625 -6.03125 C 2.878906 -6.03125 3.195312 -5.988281 3.46875 -5.90625 C 3.738281 -5.832031 3.960938 -5.722656 4.140625 -5.578125 C 4.328125 -5.441406 4.46875 -5.273438 4.5625 -5.078125 C 4.65625 -4.890625 4.703125 -4.675781 4.703125 -4.4375 C 4.703125 -4.03125 4.578125 -3.695312 4.328125 -3.4375 C 4.078125 -3.1875 3.722656 -3 3.265625 -2.875 C 3.378906 -2.820312 3.484375 -2.765625 3.578125 -2.703125 C 3.671875 -2.640625 3.757812 -2.5625 3.84375 -2.46875 C 3.9375 -2.375 4.019531 -2.257812 4.09375 -2.125 C 4.175781 -2 4.257812 -1.84375 4.34375 -1.65625 L 5 -0.25 Z M 2.515625 -5.34375 C 2.316406 -5.34375 2.140625 -5.335938 1.984375 -5.328125 C 1.835938 -5.328125 1.703125 -5.320312 1.578125 -5.3125 L 1.578125 -3.3125 L 2.515625 -3.3125 C 2.921875 -3.3125 3.25 -3.398438 3.5 -3.578125 C 3.757812 -3.765625 3.890625 -4.03125 3.890625 -4.375 C 3.890625 -4.65625 3.769531 -4.882812 3.53125 -5.0625 C 3.289062 -5.25 2.953125 -5.34375 2.515625 -5.34375 Z M 2.515625 -5.34375 "/></g></g></g><g fill="#ffffff" fill-opacity="1"><g transform="translate(269.25239, 269.257843)"><g><path d="M 0.765625 -5.953125 L 4.34375 -5.953125 L 4.34375 -5.265625 L 1.578125 -5.265625 L 1.578125 -3.453125 L 3.953125 -3.453125 L 3.953125 -2.765625 L 1.578125 -2.765625 L 1.578125 -0.703125 L 4.34375 -0.703125 L 4.34375 0 L 0.765625 0 Z M 0.765625 -5.953125 "/></g></g></g><g fill="#ffffff" fill-opacity="1"><g transform="translate(277.314874, 269.257843)"><g><path d="M 0.671875 -1.1875 C 0.867188 -1.007812 1.09375 -0.867188 1.34375 -0.765625 C 1.601562 -0.660156 1.90625 -0.609375 2.25 -0.609375 C 2.65625 -0.609375 2.976562 -0.691406 3.21875 -0.859375 C 3.457031 -1.023438 3.578125 -1.253906 3.578125 -1.546875 C 3.578125 -1.671875 3.554688 -1.78125 3.515625 -1.875 C 3.484375 -1.976562 3.414062 -2.078125 3.3125 -2.171875 C 3.21875 -2.265625 3.082031 -2.359375 2.90625 -2.453125 C 2.726562 -2.546875 2.5 -2.648438 2.21875 -2.765625 C 1.90625 -2.878906 1.640625 -2.992188 1.421875 -3.109375 C 1.210938 -3.222656 1.039062 -3.347656 0.90625 -3.484375 C 0.78125 -3.628906 0.6875 -3.785156 0.625 -3.953125 C 0.570312 -4.117188 0.546875 -4.3125 0.546875 -4.53125 C 0.546875 -4.738281 0.585938 -4.9375 0.671875 -5.125 C 0.765625 -5.3125 0.898438 -5.472656 1.078125 -5.609375 C 1.253906 -5.753906 1.46875 -5.863281 1.71875 -5.9375 C 1.96875 -6.019531 2.253906 -6.0625 2.578125 -6.0625 C 2.929688 -6.0625 3.242188 -6.023438 3.515625 -5.953125 C 3.796875 -5.878906 4.070312 -5.78125 4.34375 -5.65625 L 4.046875 -4.96875 C 3.859375 -5.082031 3.632812 -5.175781 3.375 -5.25 C 3.113281 -5.320312 2.84375 -5.359375 2.5625 -5.359375 C 2.1875 -5.359375 1.890625 -5.285156 1.671875 -5.140625 C 1.460938 -5.003906 1.359375 -4.816406 1.359375 -4.578125 C 1.359375 -4.460938 1.375 -4.359375 1.40625 -4.265625 C 1.4375 -4.179688 1.5 -4.097656 1.59375 -4.015625 C 1.6875 -3.929688 1.816406 -3.847656 1.984375 -3.765625 C 2.148438 -3.679688 2.367188 -3.585938 2.640625 -3.484375 C 2.972656 -3.359375 3.253906 -3.226562 3.484375 -3.09375 C 3.710938 -2.96875 3.894531 -2.832031 4.03125 -2.6875 C 4.164062 -2.539062 4.257812 -2.378906 4.3125 -2.203125 C 4.375 -2.035156 4.40625 -1.847656 4.40625 -1.640625 C 4.40625 -1.359375 4.351562 -1.109375 4.25 -0.890625 C 4.144531 -0.679688 3.992188 -0.5 3.796875 -0.34375 C 3.609375 -0.195312 3.378906 -0.0820312 3.109375 0 C 2.847656 0.0703125 2.5625 0.109375 2.25 0.109375 C 1.832031 0.109375 1.453125 0.0507812 1.109375 -0.0625 C 0.773438 -0.175781 0.488281 -0.320312 0.25 -0.5 Z M 0.671875 -1.1875 "/></g></g></g><g clip-path="url(#9b77aecc0c)"><g clip-path="url(#662b1ca428)"><path fill="#ffffff" d="M 284.847656 264.90625 L 287.285156 264.90625 L 287.285156 267.34375 L 284.847656 267.34375 Z M 284.847656 264.90625 " fill-opacity="1" fill-rule="nonzero"/></g></g><g clip-path="url(#9bdbd94599)"><g clip-path="url(#2c51a36861)"><path fill="#ffffff" d="M 87.144531 264.90625 L 89.578125 264.90625 L 89.578125 267.34375 L 87.144531 267.34375 Z M 87.144531 264.90625 " fill-opacity="1" fill-rule="nonzero"/></g></g></svg>