<svg width="267" height="222" viewBox="0 0 267 222" fill="none" xmlns="http://www.w3.org/2000/svg">
<g clip-path="url(#clip0_37_173)">
<path d="M113.266 143.38V70.6406" stroke="white" stroke-width="1.16795"/>
<path d="M112.87 143.062L192.854 70.6406" stroke="white" stroke-width="1.16795"/>
<path d="M194.88 143.062L152.542 107.339" stroke="white" stroke-width="1.16795"/>
<path d="M192.266 58.1302L192.266 0.00517933" stroke="white" stroke-width="1.16795"/>
<path d="M72.7344 0.598969H191.932" stroke="white" stroke-width="1.16795"/>
<path d="M73.3125 143.495V0.0103452" stroke="white" stroke-width="1.16795"/>
<path d="M72.7344 143.443L195.172 143.443" stroke="white" stroke-width="1.16795"/>
<path d="M4.73004 201.695C5.35504 202.21 6.05296 202.632 6.83421 202.966C7.62587 203.299 8.54254 203.466 9.58421 203.466C10.8342 203.466 11.8186 203.21 12.5425 202.695C13.2769 202.169 13.6467 201.46 13.6467 200.57C13.6467 200.21 13.5894 199.877 13.48 199.57C13.3811 199.252 13.178 198.945 12.8759 198.653C12.5686 198.361 12.1363 198.08 11.5842 197.799C11.0425 197.507 10.3394 197.195 9.48004 196.861C8.53212 196.502 7.73525 196.143 7.08421 195.778C6.42796 195.419 5.90192 195.028 5.50087 194.611C5.11025 194.184 4.82379 193.71 4.64671 193.195C4.46442 192.684 4.37587 192.091 4.37587 191.424C4.37587 190.788 4.50608 190.184 4.77171 189.611C5.04775 189.028 5.44879 188.528 5.98004 188.111C6.52171 187.684 7.17275 187.351 7.93837 187.111C8.71442 186.861 9.60504 186.736 10.605 186.736C11.6727 186.736 12.6311 186.851 13.48 187.07C14.3394 187.278 15.1884 187.585 16.0217 187.986L15.105 190.091C14.5217 189.747 13.8342 189.46 13.0425 189.236C12.2509 189.002 11.4175 188.882 10.5425 188.882C9.38629 188.882 8.48004 189.106 7.81337 189.549C7.15712 189.997 6.83421 190.58 6.83421 191.299C6.83421 191.648 6.88108 191.96 6.98004 192.236C7.07379 192.502 7.26129 192.757 7.54254 193.007C7.83421 193.257 8.23525 193.518 8.75087 193.778C9.26129 194.044 9.94879 194.335 10.8134 194.653C11.8134 195.028 12.6571 195.419 13.355 195.82C14.0634 196.226 14.6259 196.653 15.0425 197.111C15.4592 197.559 15.7561 198.044 15.9384 198.57C16.1155 199.085 16.2092 199.653 16.2092 200.278C16.2092 201.143 16.0425 201.903 15.7092 202.57C15.3759 203.226 14.9175 203.778 14.3342 204.236C13.7509 204.695 13.0477 205.044 12.23 205.278C11.4227 205.512 10.5425 205.632 9.58421 205.632C8.30296 205.632 7.14671 205.466 6.10504 205.132C5.06337 204.788 4.18837 204.335 3.48004 203.778L4.73004 201.695Z" fill="white"/>
<path d="M34.1614 187.049H47.8489V189.236H42.2448V205.32H39.7656V189.236H34.1614V187.049Z" fill="white"/>
<path d="M77.6174 187.049H80.0341V198.278C80.0341 199.419 79.8674 200.445 79.5341 201.361C79.2112 202.278 78.7528 203.059 78.1591 203.695C77.5601 204.32 76.8362 204.799 75.9924 205.132C75.1591 205.466 74.232 205.632 73.2216 205.632C71.0966 205.632 69.4351 205.018 68.2424 203.778C67.0445 202.528 66.4507 200.731 66.4507 198.382V187.049H68.9299V197.986C68.9299 199.736 69.2841 201.091 69.9924 202.049C70.7007 202.997 71.7737 203.466 73.2216 203.466C74.6903 203.466 75.7893 203.002 76.5132 202.07C77.2476 201.143 77.6174 199.778 77.6174 197.986V187.049Z" fill="white"/>
<path d="M100.712 187.091C101.529 187.007 102.326 186.945 103.107 186.903C103.883 186.861 104.779 186.841 105.795 186.841C107.363 186.841 108.712 187.085 109.837 187.57C110.972 188.059 111.92 188.731 112.67 189.591C113.42 190.44 113.967 191.434 114.316 192.57C114.675 193.695 114.857 194.893 114.857 196.153C114.857 197.434 114.67 198.643 114.295 199.778C113.93 200.919 113.368 201.919 112.607 202.778C111.857 203.627 110.889 204.299 109.712 204.799C108.545 205.288 107.139 205.528 105.503 205.528C104.514 205.528 103.649 205.507 102.899 205.466C102.16 205.424 101.43 205.351 100.712 205.257V187.091ZM105.712 188.986C105.212 188.986 104.753 189.002 104.337 189.028C103.92 189.044 103.535 189.07 103.191 189.111V203.236C103.55 203.294 103.93 203.33 104.337 203.341C104.738 203.356 105.154 203.361 105.587 203.361C106.753 203.361 107.758 203.19 108.607 202.841C109.467 202.481 110.17 201.981 110.712 201.341C111.264 200.705 111.67 199.945 111.92 199.07C112.18 198.195 112.316 197.226 112.316 196.153C112.316 195.226 112.18 194.33 111.92 193.466C111.67 192.591 111.274 191.82 110.732 191.153C110.191 190.486 109.503 189.96 108.67 189.57C107.837 189.184 106.847 188.986 105.712 188.986Z" fill="white"/>
<path d="M134.89 205.32V187.049H137.369V205.32H134.89Z" fill="white"/>
<path d="M157.401 196.153C157.401 194.82 157.594 193.58 157.985 192.424C158.37 191.273 158.933 190.278 159.672 189.445C160.422 188.601 161.323 187.94 162.381 187.466C163.433 186.981 164.641 186.736 166.006 186.736C167.349 186.736 168.558 186.986 169.631 187.486C170.698 187.976 171.599 188.648 172.339 189.507C173.073 190.356 173.641 191.351 174.047 192.486C174.448 193.627 174.651 194.851 174.651 196.153C174.651 197.46 174.453 198.69 174.068 199.841C173.677 200.997 173.11 202.002 172.36 202.861C171.61 203.726 170.698 204.403 169.631 204.903C168.573 205.387 167.365 205.632 166.006 205.632C164.641 205.632 163.433 205.387 162.381 204.903C161.323 204.403 160.422 203.726 159.672 202.861C158.933 202.002 158.37 200.997 157.985 199.841C157.594 198.69 157.401 197.46 157.401 196.153ZM159.922 196.153C159.922 197.101 160.052 198.018 160.318 198.903C160.594 199.794 160.99 200.58 161.506 201.257C162.032 201.924 162.672 202.466 163.422 202.882C164.183 203.288 165.047 203.486 166.006 203.486C167.016 203.486 167.901 203.299 168.651 202.924C169.412 202.549 170.052 202.038 170.568 201.382C171.078 200.731 171.464 199.96 171.714 199.07C171.974 198.169 172.11 197.195 172.11 196.153C172.11 195.226 171.969 194.32 171.693 193.445C171.412 192.57 171.011 191.794 170.485 191.111C169.969 190.434 169.328 189.893 168.568 189.486C167.818 189.085 166.964 188.882 166.006 188.882C165.047 188.882 164.183 189.07 163.422 189.445C162.672 189.809 162.032 190.315 161.506 190.966C160.99 191.622 160.594 192.393 160.318 193.278C160.052 194.169 159.922 195.127 159.922 196.153Z" fill="white"/>
<path d="M216.806 187.695L219.223 186.757L224.973 202.611L230.744 186.841L232.973 187.695L226.306 205.32H223.515L216.806 187.695Z" fill="white"/>
<path d="M265.055 203.861L263.326 205.632L254.451 196.924V205.32H251.971V187.049H254.451V195.382L262.221 186.966L263.888 188.507L256.763 195.924L265.055 203.861Z" fill="white"/>
<path d="M7.90137 221.719L11.0264 214.073H12.193L15.2764 221.719L14.2764 222.115L13.4014 219.844H9.71387L8.83887 222.094L7.90137 221.719ZM10.0472 218.948H13.0472L11.5472 215.135L10.0472 218.948Z" fill="white"/>
<path d="M25.4756 222.156L24.4964 219.99C24.2464 219.448 23.9339 219.068 23.5589 218.844C23.1839 218.625 22.6943 218.51 22.1006 218.51H21.9339V222.01H20.8506V214.094C21.2516 214.052 21.6318 214.026 21.9964 214.01C22.3558 213.984 22.7516 213.969 23.1839 213.969C23.6683 213.969 24.0902 214.026 24.4548 214.135C24.8141 214.234 25.111 214.38 25.3506 214.573C25.6006 214.755 25.7881 214.979 25.9131 215.24C26.0381 215.49 26.1006 215.776 26.1006 216.094C26.1006 216.635 25.9339 217.083 25.6006 217.427C25.2673 217.76 24.7933 218.01 24.1839 218.177C24.335 218.25 24.4756 218.323 24.6006 218.406C24.7256 218.49 24.8402 218.594 24.9548 218.719C25.0798 218.844 25.1891 219 25.2881 219.177C25.3975 219.344 25.5068 219.552 25.6214 219.802L26.4964 221.677L25.4756 222.156ZM23.1839 214.885C22.9183 214.885 22.6839 214.896 22.4756 214.906C22.2777 214.906 22.1006 214.917 21.9339 214.927V217.594H23.1839C23.7256 217.594 24.1631 217.479 24.4964 217.24C24.8402 216.99 25.0173 216.635 25.0173 216.177C25.0173 215.802 24.8558 215.5 24.5381 215.26C24.2152 215.01 23.7673 214.885 23.1839 214.885Z" fill="white"/>
<path d="M31.8459 218.031C31.8459 217.448 31.9293 216.906 32.0959 216.406C32.2626 215.906 32.5022 215.479 32.8251 215.115C33.1428 214.74 33.523 214.448 33.9709 214.24C34.4293 214.031 34.9501 213.927 35.5334 213.927C36.1168 213.927 36.6376 214.042 37.0959 214.26C37.5543 214.469 37.9397 214.76 38.2626 215.135C38.5803 215.5 38.8251 215.927 38.9918 216.427C39.1584 216.927 39.2418 217.464 39.2418 218.031C39.2418 218.615 39.1584 219.13 38.9918 219.573C38.8251 220.005 38.6272 220.38 38.4084 220.698L39.4084 221.24L38.9293 222.156L37.8251 221.323C37.5334 221.563 37.2001 221.76 36.8251 221.927C36.4501 222.078 36.0178 222.156 35.5334 222.156C34.9501 222.156 34.4293 222.042 33.9709 221.823C33.523 221.604 33.1428 221.313 32.8251 220.948C32.5022 220.573 32.2626 220.135 32.0959 219.635C31.9293 219.135 31.8459 218.604 31.8459 218.031ZM36.1584 220.281L36.6168 219.448L37.6376 220.177C37.8147 219.885 37.9397 219.568 38.0126 219.219C38.0959 218.875 38.1376 218.479 38.1376 218.031C38.1376 217.615 38.0751 217.219 37.9501 216.844C37.8355 216.469 37.6689 216.135 37.4501 215.844C37.2262 215.542 36.9553 215.302 36.6376 215.135C36.3147 214.958 35.9501 214.865 35.5334 214.865C35.1272 214.865 34.7678 214.948 34.4501 215.115C34.1272 215.271 33.8564 215.484 33.6376 215.76C33.4137 216.042 33.2418 216.375 33.1168 216.76C33.0022 217.151 32.9501 217.573 32.9501 218.031C32.9501 218.438 33.0022 218.833 33.1168 219.219C33.2262 219.609 33.3928 219.948 33.6168 220.24C33.8355 220.531 34.1064 220.771 34.4293 220.948C34.747 221.13 35.1064 221.219 35.5126 221.219C35.8303 221.219 36.1168 221.188 36.3668 221.115C36.6168 221.031 36.8303 220.938 37.0126 220.823L36.1584 220.281Z" fill="white"/>
<path d="M50.0798 214.073H51.1215V218.948C51.1215 219.448 51.0486 219.901 50.9131 220.302C50.7725 220.693 50.5694 221.026 50.309 221.302C50.059 221.583 49.7465 221.797 49.3715 221.948C49.0069 222.083 48.6059 222.156 48.1631 222.156C47.2465 222.156 46.5225 221.885 45.9965 221.344C45.4809 220.802 45.2256 220.021 45.2256 218.99V214.073H46.309V218.823C46.309 219.589 46.46 220.177 46.7673 220.594C47.0694 221 47.5381 221.198 48.1631 221.198C48.7986 221.198 49.2777 221 49.6006 220.594C49.9184 220.193 50.0798 219.604 50.0798 218.823V214.073Z" fill="white"/>
<path d="M57.4475 222.01V214.073H58.5308V222.01H57.4475Z" fill="white"/>
<path d="M64.1029 214.073H70.0821V215.01H67.6237V222.01H66.5612V215.01H64.1029V214.073Z" fill="white"/>
<path d="M75.6561 214.073H80.4269V214.99H76.7394V217.406H79.9061V218.323H76.7394V221.073H80.4269V222.01H75.6561V214.073Z" fill="white"/>
<path d="M85.4894 214.073H91.4685V215.01H89.0102V222.01H87.9477V215.01H85.4894V214.073Z" fill="white"/>
<path d="M101.73 214.073H102.772V218.948C102.772 219.448 102.699 219.901 102.563 220.302C102.423 220.693 102.22 221.026 101.959 221.302C101.709 221.583 101.397 221.797 101.022 221.948C100.657 222.083 100.256 222.156 99.8134 222.156C98.8967 222.156 98.1728 221.885 97.6467 221.344C97.1311 220.802 96.8759 220.021 96.8759 218.99V214.073H97.9592V218.823C97.9592 219.589 98.1103 220.177 98.4176 220.594C98.7197 221 99.1884 221.198 99.8134 221.198C100.449 221.198 100.928 221 101.251 220.594C101.569 220.193 101.73 219.604 101.73 218.823V214.073Z" fill="white"/>
<path d="M113.723 222.156L112.744 219.99C112.494 219.448 112.181 219.068 111.806 218.844C111.431 218.625 110.942 218.51 110.348 218.51H110.181V222.01H109.098V214.094C109.499 214.052 109.879 214.026 110.244 214.01C110.603 213.984 110.999 213.969 111.431 213.969C111.915 213.969 112.337 214.026 112.702 214.135C113.061 214.234 113.358 214.38 113.598 214.573C113.848 214.755 114.035 214.979 114.16 215.24C114.285 215.49 114.348 215.776 114.348 216.094C114.348 216.635 114.181 217.083 113.848 217.427C113.514 217.76 113.04 218.01 112.431 218.177C112.582 218.25 112.723 218.323 112.848 218.406C112.973 218.49 113.087 218.594 113.202 218.719C113.327 218.844 113.436 219 113.535 219.177C113.645 219.344 113.754 219.552 113.869 219.802L114.744 221.677L113.723 222.156ZM111.431 214.885C111.165 214.885 110.931 214.896 110.723 214.906C110.525 214.906 110.348 214.917 110.181 214.927V217.594H111.431C111.973 217.594 112.41 217.479 112.744 217.24C113.087 216.99 113.264 216.635 113.264 216.177C113.264 215.802 113.103 215.5 112.785 215.26C112.462 215.01 112.014 214.885 111.431 214.885Z" fill="white"/>
<path d="M119.635 221.719L122.76 214.073H123.926L127.01 221.719L126.01 222.115L125.135 219.844H121.447L120.572 222.094L119.635 221.719ZM121.781 218.948H124.781L123.281 215.135L121.781 218.948Z" fill="white"/>
<path d="M140.44 214.073H145.211V214.99H141.523V217.406H144.69V218.323H141.523V221.073H145.211V222.01H140.44V214.073Z" fill="white"/>
<path d="M159.046 222.01V214.073H160.129V222.01H159.046Z" fill="white"/>
<path d="M167.638 215.448V222.01H166.618V214.073H168.055L171.555 220.677V214.073H172.576V222.01H171.18L167.638 215.448Z" fill="white"/>
<path d="M178.153 214.073H184.133V215.01H181.674V222.01H180.612V215.01H178.153V214.073Z" fill="white"/>
<path d="M189.707 214.073H194.477V214.99H190.79V217.406H193.957V218.323H190.79V221.073H194.477V222.01H189.707V214.073Z" fill="white"/>
<path d="M205.082 222.156L204.102 219.99C203.852 219.448 203.54 219.068 203.165 218.844C202.79 218.625 202.3 218.51 201.707 218.51H201.54V222.01H200.457V214.094C200.858 214.052 201.238 214.026 201.602 214.01C201.962 213.984 202.358 213.969 202.79 213.969C203.274 213.969 203.696 214.026 204.061 214.135C204.42 214.234 204.717 214.38 204.957 214.573C205.207 214.755 205.394 214.979 205.519 215.24C205.644 215.49 205.707 215.776 205.707 216.094C205.707 216.635 205.54 217.083 205.207 217.427C204.873 217.76 204.399 218.01 203.79 218.177C203.941 218.25 204.082 218.323 204.207 218.406C204.332 218.49 204.446 218.594 204.561 218.719C204.686 218.844 204.795 219 204.894 219.177C205.003 219.344 205.113 219.552 205.227 219.802L206.102 221.677L205.082 222.156ZM202.79 214.885C202.524 214.885 202.29 214.896 202.082 214.906C201.884 214.906 201.707 214.917 201.54 214.927V217.594H202.79C203.332 217.594 203.769 217.479 204.102 217.24C204.446 216.99 204.623 216.635 204.623 216.177C204.623 215.802 204.462 215.5 204.144 215.26C203.821 215.01 203.373 214.885 202.79 214.885Z" fill="white"/>
<path d="M211.91 222.01V214.073H212.994V222.01H211.91Z" fill="white"/>
<path d="M219.024 218.031C219.024 217.448 219.107 216.906 219.274 216.406C219.451 215.906 219.701 215.479 220.024 215.115C220.342 214.74 220.732 214.448 221.191 214.24C221.659 214.031 222.191 213.927 222.774 213.927C223.357 213.927 223.878 214.042 224.336 214.26C224.805 214.469 225.201 214.76 225.524 215.135C225.842 215.5 226.086 215.927 226.253 216.427C226.43 216.927 226.524 217.464 226.524 218.031C226.524 218.604 226.441 219.135 226.274 219.635C226.107 220.135 225.857 220.573 225.524 220.948C225.201 221.313 224.816 221.604 224.357 221.823C223.899 222.042 223.368 222.156 222.774 222.156C222.191 222.156 221.659 222.042 221.191 221.823C220.732 221.604 220.342 221.313 220.024 220.948C219.701 220.573 219.451 220.135 219.274 219.635C219.107 219.135 219.024 218.604 219.024 218.031ZM220.128 218.031C220.128 218.438 220.18 218.833 220.295 219.219C220.42 219.609 220.592 219.948 220.816 220.24C221.05 220.531 221.326 220.771 221.649 220.948C221.982 221.13 222.357 221.219 222.774 221.219C223.217 221.219 223.597 221.135 223.92 220.969C224.253 220.802 224.529 220.583 224.753 220.302C224.972 220.026 225.139 219.693 225.253 219.302C225.378 218.901 225.441 218.479 225.441 218.031C225.441 217.615 225.378 217.219 225.253 216.844C225.128 216.469 224.946 216.135 224.711 215.844C224.487 215.542 224.211 215.302 223.878 215.135C223.555 214.958 223.191 214.865 222.774 214.865C222.357 214.865 221.982 214.948 221.649 215.115C221.326 215.271 221.05 215.49 220.816 215.781C220.592 216.063 220.42 216.396 220.295 216.781C220.18 217.172 220.128 217.589 220.128 218.031Z" fill="white"/>
<path d="M237.195 222.156L236.216 219.99C235.966 219.448 235.654 219.068 235.279 218.844C234.904 218.625 234.414 218.51 233.82 218.51H233.654V222.01H232.57V214.094C232.971 214.052 233.352 214.026 233.716 214.01C234.076 213.984 234.471 213.969 234.904 213.969C235.388 213.969 235.81 214.026 236.174 214.135C236.534 214.234 236.831 214.38 237.07 214.573C237.32 214.755 237.508 214.979 237.633 215.24C237.758 215.49 237.82 215.776 237.82 216.094C237.82 216.635 237.654 217.083 237.32 217.427C236.987 217.76 236.513 218.01 235.904 218.177C236.055 218.25 236.195 218.323 236.32 218.406C236.445 218.49 236.56 218.594 236.674 218.719C236.799 218.844 236.909 219 237.008 219.177C237.117 219.344 237.227 219.552 237.341 219.802L238.216 221.677L237.195 222.156ZM234.904 214.885C234.638 214.885 234.404 214.896 234.195 214.906C233.997 214.906 233.82 214.917 233.654 214.927V217.594H234.904C235.445 217.594 235.883 217.479 236.216 217.24C236.56 216.99 236.737 216.635 236.737 216.177C236.737 215.802 236.576 215.5 236.258 215.26C235.935 215.01 235.487 214.885 234.904 214.885Z" fill="white"/>
<path d="M244.024 214.073H248.795V214.99H245.107V217.406H248.274V218.323H245.107V221.073H248.795V222.01H244.024V214.073Z" fill="white"/>
<path d="M254.649 220.427C254.909 220.667 255.212 220.854 255.545 220.99C255.889 221.13 256.295 221.198 256.753 221.198C257.295 221.198 257.722 221.089 258.045 220.865C258.363 220.646 258.524 220.339 258.524 219.948C258.524 219.781 258.493 219.635 258.441 219.51C258.399 219.375 258.305 219.24 258.17 219.115C258.045 218.99 257.863 218.865 257.628 218.74C257.389 218.615 257.087 218.479 256.712 218.323C256.295 218.172 255.941 218.021 255.649 217.865C255.368 217.714 255.139 217.547 254.962 217.365C254.795 217.172 254.67 216.964 254.587 216.74C254.514 216.521 254.482 216.26 254.482 215.969C254.482 215.693 254.534 215.427 254.649 215.177C254.774 214.927 254.951 214.714 255.191 214.531C255.425 214.339 255.712 214.193 256.045 214.094C256.378 213.984 256.758 213.927 257.191 213.927C257.659 213.927 258.076 213.979 258.441 214.073C258.816 214.172 259.18 214.302 259.545 214.469L259.149 215.385C258.899 215.234 258.597 215.109 258.253 215.01C257.904 214.917 257.545 214.865 257.17 214.865C256.67 214.865 256.274 214.964 255.982 215.156C255.701 215.339 255.566 215.589 255.566 215.906C255.566 216.063 255.587 216.198 255.628 216.323C255.67 216.438 255.753 216.547 255.878 216.656C256.003 216.771 256.175 216.88 256.399 216.99C256.618 217.104 256.909 217.229 257.274 217.365C257.717 217.531 258.092 217.708 258.399 217.885C258.701 218.052 258.946 218.234 259.128 218.427C259.305 218.625 259.43 218.839 259.503 219.073C259.587 219.297 259.628 219.547 259.628 219.823C259.628 220.198 259.555 220.531 259.42 220.823C259.279 221.104 259.076 221.344 258.816 221.552C258.566 221.75 258.258 221.901 257.899 222.01C257.55 222.104 257.17 222.156 256.753 222.156C256.196 222.156 255.691 222.078 255.232 221.927C254.784 221.776 254.404 221.583 254.087 221.344L254.649 220.427Z" fill="white"/>
<mask id="mask0_37_173" style="mask-type:luminance" maskUnits="userSpaceOnUse" x="263" y="216" width="5" height="4">
<path d="M263.797 216.208H267.047V219.458H263.797V216.208Z" fill="white"/>
</mask>
<g mask="url(#mask0_37_173)">
<mask id="mask1_37_173" style="mask-type:luminance" maskUnits="userSpaceOnUse" x="263" y="216" width="5" height="4">
<path d="M265.422 216.208C264.526 216.208 263.797 216.938 263.797 217.833C263.797 218.729 264.526 219.458 265.422 219.458C266.318 219.458 267.047 218.729 267.047 217.833C267.047 216.938 266.318 216.208 265.422 216.208Z" fill="white"/>
</mask>
<g mask="url(#mask1_37_173)">
<path d="M263.797 216.208H267.047V219.458H263.797V216.208Z" fill="white"/>
</g>
</g>
<mask id="mask2_37_173" style="mask-type:luminance" maskUnits="userSpaceOnUse" x="0" y="216" width="4" height="4">
<path d="M0.192688 216.208H3.43748V219.458H0.192688V216.208Z" fill="white"/>
</mask>
<g mask="url(#mask2_37_173)">
<mask id="mask3_37_173" style="mask-type:luminance" maskUnits="userSpaceOnUse" x="0" y="216" width="4" height="4">
<path d="M1.81769 216.208C0.921855 216.208 0.192688 216.938 0.192688 217.833C0.192688 218.729 0.921855 219.458 1.81769 219.458C2.71352 219.458 3.43748 218.729 3.43748 217.833C3.43748 216.938 2.71352 216.208 1.81769 216.208Z" fill="white"/>
</mask>
<g mask="url(#mask3_37_173)">
<path d="M0.192688 216.208H3.43748V219.458H0.192688V216.208Z" fill="white"/>
</g>
</g>
</g>
<defs>
<clipPath id="clip0_37_173">
<rect width="267" height="222" fill="white"/>
</clipPath>
</defs>
</svg>
